<mxfile host="app.diagrams.net" modified="2023-04-28T23:29:56.324Z" agent="Mozilla/5.0 (Macintosh; Intel Mac OS X 10_15_7) AppleWebKit/537.36 (KHTML, like Gecko) Chrome/108.0.0.0 Safari/537.36" etag="goPSqYLdtRakunQWzviT" version="21.2.3" type="device">
  <diagram name="Page-1" id="VcMjF-vOZkYGk9-veCk-">
    <mxGraphModel dx="984" dy="567" grid="1" gridSize="10" guides="1" tooltips="1" connect="1" arrows="1" fold="1" page="1" pageScale="1" pageWidth="850" pageHeight="1100" math="0" shadow="0">
      <root>
        <mxCell id="0" />
        <mxCell id="1" parent="0" />
        <mxCell id="L0_HUK37UT9yYnPfuwoB-2" value="types" style="swimlane;fontStyle=0;childLayout=stackLayout;horizontal=1;startSize=30;horizontalStack=0;resizeParent=1;resizeParentMax=0;resizeLast=0;collapsible=1;marginBottom=0;whiteSpace=wrap;html=1;" vertex="1" parent="1">
          <mxGeometry x="260" y="40" width="140" height="110" as="geometry" />
        </mxCell>
        <mxCell id="L0_HUK37UT9yYnPfuwoB-4" value="PK: type_id" style="text;strokeColor=none;fillColor=none;align=left;verticalAlign=middle;spacingLeft=4;spacingRight=4;overflow=hidden;points=[[0,0.5],[1,0.5]];portConstraint=eastwest;rotatable=0;whiteSpace=wrap;html=1;" vertex="1" parent="L0_HUK37UT9yYnPfuwoB-2">
          <mxGeometry y="30" width="140" height="30" as="geometry" />
        </mxCell>
        <mxCell id="L0_HUK37UT9yYnPfuwoB-5" value="type_id&lt;br&gt;type1, type 2" style="text;strokeColor=none;fillColor=none;align=left;verticalAlign=middle;spacingLeft=4;spacingRight=4;overflow=hidden;points=[[0,0.5],[1,0.5]];portConstraint=eastwest;rotatable=0;whiteSpace=wrap;html=1;" vertex="1" parent="L0_HUK37UT9yYnPfuwoB-2">
          <mxGeometry y="60" width="140" height="50" as="geometry" />
        </mxCell>
        <mxCell id="L0_HUK37UT9yYnPfuwoB-6" value="pokemon" style="swimlane;fontStyle=0;childLayout=stackLayout;horizontal=1;startSize=30;horizontalStack=0;resizeParent=1;resizeParentMax=0;resizeLast=0;collapsible=1;marginBottom=0;whiteSpace=wrap;html=1;" vertex="1" parent="1">
          <mxGeometry x="80" y="40" width="130" height="220" as="geometry" />
        </mxCell>
        <mxCell id="L0_HUK37UT9yYnPfuwoB-7" value="PK: pokedex_number" style="text;strokeColor=none;fillColor=none;align=left;verticalAlign=middle;spacingLeft=4;spacingRight=4;overflow=hidden;points=[[0,0.5],[1,0.5]];portConstraint=eastwest;rotatable=0;whiteSpace=wrap;html=1;" vertex="1" parent="L0_HUK37UT9yYnPfuwoB-6">
          <mxGeometry y="30" width="130" height="30" as="geometry" />
        </mxCell>
        <mxCell id="L0_HUK37UT9yYnPfuwoB-8" value="pokedex_number&lt;br&gt;name&lt;br&gt;hp&lt;br&gt;attack&lt;br&gt;defense&lt;br&gt;special_attack&lt;br&gt;special_defense&lt;br&gt;speed" style="text;strokeColor=none;fillColor=none;align=left;verticalAlign=middle;spacingLeft=4;spacingRight=4;overflow=hidden;points=[[0,0.5],[1,0.5]];portConstraint=eastwest;rotatable=0;whiteSpace=wrap;html=1;" vertex="1" parent="L0_HUK37UT9yYnPfuwoB-6">
          <mxGeometry y="60" width="130" height="160" as="geometry" />
        </mxCell>
        <mxCell id="L0_HUK37UT9yYnPfuwoB-10" value="pokemon_types" style="swimlane;fontStyle=0;childLayout=stackLayout;horizontal=1;startSize=30;horizontalStack=0;resizeParent=1;resizeParentMax=0;resizeLast=0;collapsible=1;marginBottom=0;whiteSpace=wrap;html=1;" vertex="1" parent="1">
          <mxGeometry x="20" y="300" width="170" height="180" as="geometry" />
        </mxCell>
        <mxCell id="L0_HUK37UT9yYnPfuwoB-11" value="PK: pokedex_number&lt;br&gt;type_id&lt;br&gt;FK: pokedex_number&lt;br&gt;type_id&lt;br&gt;&lt;br&gt;pokedex_number&lt;br&gt;type_id" style="text;strokeColor=none;fillColor=none;align=left;verticalAlign=middle;spacingLeft=4;spacingRight=4;overflow=hidden;points=[[0,0.5],[1,0.5]];portConstraint=eastwest;rotatable=0;whiteSpace=wrap;html=1;" vertex="1" parent="L0_HUK37UT9yYnPfuwoB-10">
          <mxGeometry y="30" width="170" height="150" as="geometry" />
        </mxCell>
        <mxCell id="L0_HUK37UT9yYnPfuwoB-18" value="pokemon_abilities" style="swimlane;fontStyle=0;childLayout=stackLayout;horizontal=1;startSize=30;horizontalStack=0;resizeParent=1;resizeParentMax=0;resizeLast=0;collapsible=1;marginBottom=0;whiteSpace=wrap;html=1;" vertex="1" parent="1">
          <mxGeometry x="240" y="300" width="140" height="160" as="geometry" />
        </mxCell>
        <mxCell id="L0_HUK37UT9yYnPfuwoB-19" value="PK: pokedex_number&lt;br&gt;ability_id" style="text;strokeColor=none;fillColor=none;align=left;verticalAlign=middle;spacingLeft=4;spacingRight=4;overflow=hidden;points=[[0,0.5],[1,0.5]];portConstraint=eastwest;rotatable=0;whiteSpace=wrap;html=1;" vertex="1" parent="L0_HUK37UT9yYnPfuwoB-18">
          <mxGeometry y="30" width="140" height="30" as="geometry" />
        </mxCell>
        <mxCell id="L0_HUK37UT9yYnPfuwoB-20" value="FK: pokedex_number&amp;nbsp;&lt;br&gt;ability_id&amp;nbsp;" style="text;strokeColor=none;fillColor=none;align=left;verticalAlign=middle;spacingLeft=4;spacingRight=4;overflow=hidden;points=[[0,0.5],[1,0.5]];portConstraint=eastwest;rotatable=0;whiteSpace=wrap;html=1;" vertex="1" parent="L0_HUK37UT9yYnPfuwoB-18">
          <mxGeometry y="60" width="140" height="50" as="geometry" />
        </mxCell>
        <mxCell id="L0_HUK37UT9yYnPfuwoB-21" value="pokedex_number, ability_id" style="text;strokeColor=none;fillColor=none;align=left;verticalAlign=middle;spacingLeft=4;spacingRight=4;overflow=hidden;points=[[0,0.5],[1,0.5]];portConstraint=eastwest;rotatable=0;whiteSpace=wrap;html=1;" vertex="1" parent="L0_HUK37UT9yYnPfuwoB-18">
          <mxGeometry y="110" width="140" height="50" as="geometry" />
        </mxCell>
        <mxCell id="L0_HUK37UT9yYnPfuwoB-23" value="against_types" style="swimlane;fontStyle=0;childLayout=stackLayout;horizontal=1;startSize=30;horizontalStack=0;resizeParent=1;resizeParentMax=0;resizeLast=0;collapsible=1;marginBottom=0;whiteSpace=wrap;html=1;" vertex="1" parent="1">
          <mxGeometry x="425" y="230" width="130" height="200" as="geometry" />
        </mxCell>
        <mxCell id="L0_HUK37UT9yYnPfuwoB-24" value="PK: type_id, against_type_id" style="text;strokeColor=none;fillColor=none;align=left;verticalAlign=middle;spacingLeft=4;spacingRight=4;overflow=hidden;points=[[0,0.5],[1,0.5]];portConstraint=eastwest;rotatable=0;whiteSpace=wrap;html=1;" vertex="1" parent="L0_HUK37UT9yYnPfuwoB-23">
          <mxGeometry y="30" width="130" height="30" as="geometry" />
        </mxCell>
        <mxCell id="L0_HUK37UT9yYnPfuwoB-25" value="FK: type_id,&lt;br&gt;against_type_id" style="text;strokeColor=none;fillColor=none;align=left;verticalAlign=middle;spacingLeft=4;spacingRight=4;overflow=hidden;points=[[0,0.5],[1,0.5]];portConstraint=eastwest;rotatable=0;whiteSpace=wrap;html=1;" vertex="1" parent="L0_HUK37UT9yYnPfuwoB-23">
          <mxGeometry y="60" width="130" height="80" as="geometry" />
        </mxCell>
        <mxCell id="L0_HUK37UT9yYnPfuwoB-26" value="type_id&lt;br&gt;against_type_id&lt;br&gt;damage_factor" style="text;strokeColor=none;fillColor=none;align=left;verticalAlign=middle;spacingLeft=4;spacingRight=4;overflow=hidden;points=[[0,0.5],[1,0.5]];portConstraint=eastwest;rotatable=0;whiteSpace=wrap;html=1;" vertex="1" parent="L0_HUK37UT9yYnPfuwoB-23">
          <mxGeometry y="140" width="130" height="60" as="geometry" />
        </mxCell>
        <mxCell id="L0_HUK37UT9yYnPfuwoB-27" value="pokemon_against_types" style="swimlane;fontStyle=0;childLayout=stackLayout;horizontal=1;startSize=30;horizontalStack=0;resizeParent=1;resizeParentMax=0;resizeLast=0;collapsible=1;marginBottom=0;whiteSpace=wrap;html=1;" vertex="1" parent="1">
          <mxGeometry x="600" y="210" width="160" height="160" as="geometry" />
        </mxCell>
        <mxCell id="L0_HUK37UT9yYnPfuwoB-28" value="PK: pokedex_number&lt;br&gt;type_id&lt;br&gt;against_type_id" style="text;strokeColor=none;fillColor=none;align=left;verticalAlign=middle;spacingLeft=4;spacingRight=4;overflow=hidden;points=[[0,0.5],[1,0.5]];portConstraint=eastwest;rotatable=0;whiteSpace=wrap;html=1;" vertex="1" parent="L0_HUK37UT9yYnPfuwoB-27">
          <mxGeometry y="30" width="160" height="30" as="geometry" />
        </mxCell>
        <mxCell id="L0_HUK37UT9yYnPfuwoB-29" value="FK: pokedex_number&lt;br&gt;type_id&amp;nbsp;&lt;br&gt;against_type_id" style="text;strokeColor=none;fillColor=none;align=left;verticalAlign=middle;spacingLeft=4;spacingRight=4;overflow=hidden;points=[[0,0.5],[1,0.5]];portConstraint=eastwest;rotatable=0;whiteSpace=wrap;html=1;" vertex="1" parent="L0_HUK37UT9yYnPfuwoB-27">
          <mxGeometry y="60" width="160" height="70" as="geometry" />
        </mxCell>
        <mxCell id="L0_HUK37UT9yYnPfuwoB-30" value="pokedex_number&lt;br&gt;type_id&lt;br&gt;against_type_id" style="text;strokeColor=none;fillColor=none;align=left;verticalAlign=middle;spacingLeft=4;spacingRight=4;overflow=hidden;points=[[0,0.5],[1,0.5]];portConstraint=eastwest;rotatable=0;whiteSpace=wrap;html=1;" vertex="1" parent="L0_HUK37UT9yYnPfuwoB-27">
          <mxGeometry y="130" width="160" height="30" as="geometry" />
        </mxCell>
        <mxCell id="L0_HUK37UT9yYnPfuwoB-31" value="abilities" style="swimlane;fontStyle=0;childLayout=stackLayout;horizontal=1;startSize=30;horizontalStack=0;resizeParent=1;resizeParentMax=0;resizeLast=0;collapsible=1;marginBottom=0;whiteSpace=wrap;html=1;" vertex="1" parent="1">
          <mxGeometry x="500" y="30" width="140" height="100" as="geometry" />
        </mxCell>
        <mxCell id="L0_HUK37UT9yYnPfuwoB-32" value="PK: ability_id" style="text;strokeColor=none;fillColor=none;align=left;verticalAlign=middle;spacingLeft=4;spacingRight=4;overflow=hidden;points=[[0,0.5],[1,0.5]];portConstraint=eastwest;rotatable=0;whiteSpace=wrap;html=1;" vertex="1" parent="L0_HUK37UT9yYnPfuwoB-31">
          <mxGeometry y="30" width="140" height="30" as="geometry" />
        </mxCell>
        <mxCell id="L0_HUK37UT9yYnPfuwoB-33" value="ability_id&lt;br&gt;ability" style="text;strokeColor=none;fillColor=none;align=left;verticalAlign=middle;spacingLeft=4;spacingRight=4;overflow=hidden;points=[[0,0.5],[1,0.5]];portConstraint=eastwest;rotatable=0;whiteSpace=wrap;html=1;" vertex="1" parent="L0_HUK37UT9yYnPfuwoB-31">
          <mxGeometry y="60" width="140" height="40" as="geometry" />
        </mxCell>
        <mxCell id="L0_HUK37UT9yYnPfuwoB-36" value="" style="endArrow=none;html=1;rounded=0;" edge="1" parent="1">
          <mxGeometry width="50" height="50" relative="1" as="geometry">
            <mxPoint x="80" y="300" as="sourcePoint" />
            <mxPoint x="130" y="260" as="targetPoint" />
          </mxGeometry>
        </mxCell>
        <mxCell id="L0_HUK37UT9yYnPfuwoB-39" value="" style="endArrow=none;html=1;rounded=0;" edge="1" parent="1" target="L0_HUK37UT9yYnPfuwoB-5">
          <mxGeometry width="50" height="50" relative="1" as="geometry">
            <mxPoint x="190" y="300" as="sourcePoint" />
            <mxPoint x="320" y="140" as="targetPoint" />
          </mxGeometry>
        </mxCell>
        <mxCell id="L0_HUK37UT9yYnPfuwoB-40" value="" style="endArrow=none;html=1;rounded=0;exitX=0.5;exitY=0;exitDx=0;exitDy=0;entryX=1.015;entryY=0.591;entryDx=0;entryDy=0;entryPerimeter=0;" edge="1" parent="1" source="L0_HUK37UT9yYnPfuwoB-18" target="L0_HUK37UT9yYnPfuwoB-8">
          <mxGeometry width="50" height="50" relative="1" as="geometry">
            <mxPoint x="330" y="250" as="sourcePoint" />
            <mxPoint x="380" y="200" as="targetPoint" />
          </mxGeometry>
        </mxCell>
        <mxCell id="L0_HUK37UT9yYnPfuwoB-41" value="" style="endArrow=none;html=1;rounded=0;exitX=0.643;exitY=0;exitDx=0;exitDy=0;exitPerimeter=0;entryX=0;entryY=0.5;entryDx=0;entryDy=0;" edge="1" parent="1" source="L0_HUK37UT9yYnPfuwoB-18" target="L0_HUK37UT9yYnPfuwoB-32">
          <mxGeometry width="50" height="50" relative="1" as="geometry">
            <mxPoint x="370" y="250" as="sourcePoint" />
            <mxPoint x="420" y="200" as="targetPoint" />
          </mxGeometry>
        </mxCell>
        <mxCell id="L0_HUK37UT9yYnPfuwoB-44" value="" style="endArrow=none;html=1;rounded=0;exitX=0.354;exitY=-0.007;exitDx=0;exitDy=0;exitPerimeter=0;entryX=0.986;entryY=0.95;entryDx=0;entryDy=0;entryPerimeter=0;" edge="1" parent="1" source="L0_HUK37UT9yYnPfuwoB-23" target="L0_HUK37UT9yYnPfuwoB-5">
          <mxGeometry width="50" height="50" relative="1" as="geometry">
            <mxPoint x="490" y="260" as="sourcePoint" />
            <mxPoint x="540" y="210" as="targetPoint" />
          </mxGeometry>
        </mxCell>
        <mxCell id="L0_HUK37UT9yYnPfuwoB-46" value="" style="endArrow=none;html=1;rounded=0;exitX=0.15;exitY=-0.016;exitDx=0;exitDy=0;exitPerimeter=0;entryX=1.015;entryY=0.353;entryDx=0;entryDy=0;entryPerimeter=0;" edge="1" parent="1" source="L0_HUK37UT9yYnPfuwoB-27" target="L0_HUK37UT9yYnPfuwoB-8">
          <mxGeometry width="50" height="50" relative="1" as="geometry">
            <mxPoint x="620" y="260" as="sourcePoint" />
            <mxPoint x="670" y="210" as="targetPoint" />
          </mxGeometry>
        </mxCell>
        <mxCell id="L0_HUK37UT9yYnPfuwoB-47" value="" style="endArrow=none;html=1;rounded=0;exitX=0.319;exitY=-0.003;exitDx=0;exitDy=0;exitPerimeter=0;entryX=1.007;entryY=0.05;entryDx=0;entryDy=0;entryPerimeter=0;" edge="1" parent="1" source="L0_HUK37UT9yYnPfuwoB-27" target="L0_HUK37UT9yYnPfuwoB-5">
          <mxGeometry width="50" height="50" relative="1" as="geometry">
            <mxPoint x="650" y="260" as="sourcePoint" />
            <mxPoint x="700" y="210" as="targetPoint" />
          </mxGeometry>
        </mxCell>
      </root>
    </mxGraphModel>
  </diagram>
</mxfile>
